<svg xmlns="http://www.w3.org/2000/svg" style="display: none;">
  <!-- First SVG as a symbol -->
  <symbol id="icon1" width="82" height="60" viewBox="0 0 82 60">
    <rect x="23" y="1" width="58" height="58" rx="9" fill="#FFDECC"/>
    <rect x="23" y="1" width="58" height="58" rx="9" stroke="#262626" stroke-width="2"/>
    <path d="M51.6998 20.8053C51.8912 20.7216 52.1089 20.7216 52.3003 20.8053C56.0192 22.4301 59.5437 24.4164 62.8295 26.7196C63.0673 26.8862 63.1875 27.1752 63.1381 27.4614C63.0887 27.7475 62.8785 27.9794 62.5986 28.0567C61.9137 28.2457 61.2347 28.4494 60.5618 28.6663C57.8307 29.5471 55.2018 30.6554 52.6972 31.9688L52.6939 31.9705C52.5803 32.0301 52.467 32.09 52.354 32.1504C52.1331 32.2684 51.8679 32.2684 51.6471 32.1504C51.533 32.0895 51.4186 32.0289 51.3039 31.9688C50.0655 31.3193 48.7966 30.7201 47.5 30.1736V29.95C47.5 29.8186 47.5674 29.702 47.6717 29.6389C49.1769 28.727 50.7294 27.8856 52.3247 27.1194C52.6981 26.94 52.8554 26.492 52.6761 26.1186C52.4967 25.7452 52.0486 25.5879 51.6753 25.7672C50.036 26.5546 48.4409 27.4191 46.8945 28.3559C46.4411 28.6306 46.1363 29.0801 46.0361 29.5838C45.1811 29.2549 44.315 28.9486 43.4383 28.6659C42.7655 28.4489 42.0864 28.2457 41.4015 28.0567C41.1216 27.9794 40.9115 27.7475 40.862 27.4613C40.8126 27.1752 40.9328 26.8862 41.1706 26.7195C44.4565 24.4164 47.981 22.4301 51.6998 20.8053Z" fill="#262626"/>
    <path d="M53.0609 33.4734C55.4997 32.1703 58.0621 31.0687 60.7258 30.1906C60.8601 31.6054 60.9458 33.0343 60.9813 34.4755C60.9889 34.7847 60.8059 35.0669 60.5205 35.1861C57.6693 36.3764 54.9574 37.834 52.4159 39.5277C52.1641 39.6955 51.836 39.6955 51.5841 39.5277C49.0427 37.834 46.3307 36.3764 43.4796 35.1861C43.1942 35.0669 43.0112 34.7847 43.0188 34.4755C43.0543 33.0342 43.14 31.6052 43.2743 30.1903C44.1953 30.4938 45.1042 30.8242 46 31.1803V32.4507C45.5516 32.71 45.25 33.1948 45.25 33.75C45.25 34.2453 45.4901 34.6846 45.8602 34.9577C45.7707 35.3383 45.6382 35.7108 45.4628 36.0675C45.9155 36.2811 46.3643 36.5017 46.8091 36.7289C47.0624 36.2137 47.2461 35.6729 47.3601 35.1207C47.8845 34.887 48.25 34.3612 48.25 33.75C48.25 33.1948 47.9483 32.71 47.5 32.4507V31.8059C48.6714 32.3177 49.8188 32.8743 50.9402 33.4734C51.6028 33.8274 52.3983 33.8274 53.0609 33.4734Z" fill="#262626"/>
    <path d="M44.4622 37.4623C44.8814 37.0432 45.215 36.5711 45.4628 36.0675C45.9155 36.2811 46.3643 36.5017 46.8091 36.7289C46.4905 37.3768 46.0616 37.9842 45.5229 38.523C45.23 38.8158 44.7551 38.8158 44.4622 38.523C44.1693 38.2301 44.1693 37.7552 44.4622 37.4623Z" fill="#262626"/>
  </symbol>

  <!-- Second SVG as a symbol -->
  <symbol id="icon2" width="24" height="18" viewBox="0 0 24 18">
    <path d="M4.57556 13.5964L4.83622 14.5839C5.16637 15.8678 5.88751 16.5262 7.32109 16.5262H16.6785C18.1208 16.5262 18.8332 15.8843 19.172 14.5839L19.4327 13.5964H4.57556ZM4.28885 12.4688H19.7281L21.3615 6.13186L20.6491 5.74506L16.6438 8.51029C16.3483 8.70784 16.1485 8.63375 15.9834 8.41154L12.2126 3.01274L11.7956 2.99628L7.9901 8.43619C7.8424 8.65018 7.66863 8.71605 7.37322 8.5185L3.44607 5.80266L2.61199 6.00841L4.28885 12.4688ZM2.93346 7.7778C4.08033 7.7778 5.00129 6.89724 5.00129 5.80266C5.00129 4.73278 4.08033 3.84395 2.93346 3.84395C1.78659 3.84395 0.856934 4.72455 0.856934 5.80266C0.856934 6.89724 1.79528 7.7778 2.93346 7.7778ZM12.0042 4.35421C13.1423 4.35421 14.072 3.47361 14.072 2.38727C14.072 1.31738 13.1423 0.428558 12.0042 0.428558C10.8486 0.428558 9.92763 1.30916 9.92763 2.38727C9.92763 3.47361 10.8573 4.35421 12.0042 4.35421ZM21.0661 7.7778C22.2043 7.7778 23.1426 6.89724 23.1426 5.80266C23.1426 4.72455 22.213 3.84395 21.0661 3.84395C19.928 3.84395 18.9983 4.73278 18.9983 5.80266C18.9983 6.89724 19.928 7.7778 21.0661 7.7778Z" fill="#262626"/>
  </symbol>
</svg>