<svg width="24" height="18" viewBox="0 0 24 18" fill="none" xmlns="http://www.w3.org/2000/svg">
<path d="M4.57556 13.5964L4.83622 14.5839C5.16637 15.8678 5.88751 16.5262 7.32109 16.5262H16.6785C18.1208 16.5262 18.8332 15.8843 19.172 14.5839L19.4327 13.5964H4.57556ZM4.28885 12.4688H19.7281L21.3615 6.13186L20.6491 5.74506L16.6438 8.51029C16.3483 8.70784 16.1485 8.63375 15.9834 8.41154L12.2126 3.01274L11.7956 2.99628L7.9901 8.43619C7.8424 8.65018 7.66863 8.71605 7.37322 8.5185L3.44607 5.80266L2.61199 6.00841L4.28885 12.4688ZM2.93346 7.7778C4.08033 7.7778 5.00129 6.89724 5.00129 5.80266C5.00129 4.73278 4.08033 3.84395 2.93346 3.84395C1.78659 3.84395 0.856934 4.72455 0.856934 5.80266C0.856934 6.89724 1.79528 7.7778 2.93346 7.7778ZM12.0042 4.35421C13.1423 4.35421 14.072 3.47361 14.072 2.38727C14.072 1.31738 13.1423 0.428558 12.0042 0.428558C10.8486 0.428558 9.92763 1.30916 9.92763 2.38727C9.92763 3.47361 10.8573 4.35421 12.0042 4.35421ZM21.0661 7.7778C22.2043 7.7778 23.1426 6.89724 23.1426 5.80266C23.1426 4.72455 22.213 3.84395 21.0661 3.84395C19.928 3.84395 18.9983 4.73278 18.9983 5.80266C18.9983 6.89724 19.928 7.7778 21.0661 7.7778Z" fill="#262626"/>
</svg>
