<svg width="50" height="45" viewBox="0 0 50 45" fill="none" xmlns="http://www.w3.org/2000/svg">
<g opacity="0.5">
<rect width="12.5" height="12.5" transform="matrix(-4.37114e-08 1 1 4.37114e-08 37.5 35.5)" fill="white"/>
<rect width="12.5" height="6.25" transform="matrix(-4.37114e-08 1 1 4.37114e-08 37.5 35.5)" fill="white"/>
<path d="M50 41.75C50 45.2018 47.2018 48 43.75 48L43.75 35.5C47.2018 35.5 50 38.2982 50 41.75Z" fill="white"/>
<rect x="50" y="23" width="12.5" height="12.5" transform="rotate(90 50 23)" fill="#FF9E66"/>
<rect x="37.5" y="23" width="12.5" height="12.5" transform="rotate(-90 37.5 23)" fill="#FFBE99"/>
<rect width="12.5" height="12.5" transform="matrix(4.37114e-08 -1 -1 -4.37114e-08 50 10.5)" fill="#FF9E66"/>
<path d="M50 10.5C48.3585 10.5 46.733 10.1767 45.2165 9.54849C43.6999 8.92031 42.3219 7.99957 41.1612 6.83883C40.0004 5.6781 39.0797 4.30011 38.4515 2.78354C37.8233 1.26697 37.5 -0.358477 37.5 -2L50 -2L50 10.5Z" fill="#FFBE99"/>
<rect width="12.5" height="12.5" transform="matrix(-4.37114e-08 1 1 4.37114e-08 25 35.5)" fill="white"/>
<rect x="37.5" y="23" width="12.5" height="12.5" transform="rotate(90 37.5 23)" fill="white"/>
<path d="M37.5 35.5C35.8585 35.5 34.233 35.1767 32.7165 34.5485C31.1999 33.9203 29.8219 32.9996 28.6612 31.8388C27.5004 30.6781 26.5797 29.3001 25.9515 27.7835C25.3233 26.267 25 24.6415 25 23L37.5 23L37.5 35.5Z" fill="#FF9E66"/>
<rect x="25" y="23" width="12.5" height="12.5" transform="rotate(-90 25 23)" fill="#FF9E66"/>
<path d="M37.5 10.5C35.8585 10.5 34.233 10.8233 32.7165 11.4515C31.1999 12.0797 29.8219 13.0004 28.6612 14.1612C27.5004 15.3219 26.5797 16.6999 25.9515 18.2165C25.3233 19.733 25 21.3585 25 23L37.5 23L37.5 10.5Z" fill="#FFBE99"/>
<rect width="12.5" height="12.5" transform="matrix(4.37114e-08 -1 -1 -4.37114e-08 37.5 10.5)" fill="#FF9E66"/>
<rect width="12.5" height="6.25" transform="matrix(4.37114e-08 -1 -1 -4.37114e-08 31.25 10.5)" fill="white"/>
<path d="M37.5 4.25C37.5 0.79822 34.7018 -2 31.25 -2L31.25 10.5C34.7018 10.5 37.5 7.70178 37.5 4.25Z" fill="white"/>
<rect width="12.5" height="12.5" transform="matrix(-4.37114e-08 1 1 4.37114e-08 12.5 35.5)" fill="white"/>
<rect width="12.5" height="6.25" transform="matrix(-4.37114e-08 1 1 4.37114e-08 12.5 35.5)" fill="#FFBE99"/>
<path d="M25 41.75C25 45.2018 22.2018 48 18.75 48L18.75 35.5C22.2018 35.5 25 38.2982 25 41.75Z" fill="#FFBE99"/>
<rect x="25" y="23" width="12.5" height="12.5" transform="rotate(90 25 23)" fill="white"/>
<path d="M12.5 35.5C14.1415 35.5 15.767 35.1767 17.2835 34.5485C18.8001 33.9203 20.1781 32.9996 21.3388 31.8388C22.4996 30.6781 23.4203 29.3001 24.0485 27.7835C24.6767 26.267 25 24.6415 25 23L12.5 23L12.5 35.5Z" fill="#FF9E66"/>
<rect x="12.5" y="23" width="12.5" height="12.5" transform="rotate(-90 12.5 23)" fill="#FF9E66"/>
<rect width="12.5" height="12.5" transform="matrix(4.37114e-08 -1 -1 -4.37114e-08 25 10.5)" fill="white"/>
<rect width="12.5" height="12.5" transform="matrix(-4.37114e-08 1 1 4.37114e-08 0 35.5)" fill="url(#paint0_linear_2202_3)"/>
<rect x="12.5" y="23" width="12.5" height="12.5" transform="rotate(90 12.5 23)" fill="url(#paint1_linear_2202_3)"/>
<rect y="23" width="12.5" height="12.5" transform="rotate(-90 0 23)" fill="url(#paint2_linear_2202_3)"/>
<rect y="23" width="12.5" height="6.25" transform="rotate(-90 0 23)" fill="url(#paint3_linear_2202_3)"/>
<path d="M12.5 16.75C12.5 20.2018 9.70178 23 6.25 23L6.25 10.5C9.70178 10.5 12.5 13.2982 12.5 16.75Z" fill="#FFBE99"/>
<rect width="12.5" height="12.5" transform="matrix(4.37114e-08 -1 -1 -4.37114e-08 12.5 10.5)" fill="url(#paint4_linear_2202_3)"/>
<rect width="12.5" height="6.25" transform="matrix(4.37114e-08 -1 -1 -4.37114e-08 12.5 10.5)" fill="white"/>
<path d="M1.89746 5.19856C1.89746 2.27071 4.27095 -0.102783 7.1988 -0.102783L7.1988 10.4999C4.27095 10.4999 1.89746 8.1264 1.89746 5.19856Z" fill="url(#paint5_linear_2202_3)"/>
</g>
<g opacity="0.9">
<path d="M48.3013 24.9272C48.4193 24.9399 48.5331 24.9525 48.6511 24.9694C48.5373 24.9525 48.4193 24.9399 48.3013 24.9272Z" fill="#262626"/>
<path d="M55.5897 27.2796L54.9532 26.9382C54.9363 26.9297 54.9153 26.9171 54.8984 26.9087C54.8309 26.8749 54.7635 26.8412 54.6961 26.8075C54.7382 26.8286 54.7846 26.8496 54.8309 26.8707C54.7298 26.8159 54.6286 26.7653 54.5274 26.7105L54.0806 26.5082C54.1186 26.5251 54.1607 26.5461 54.1987 26.563C53.6507 26.3101 53.0943 26.0825 52.521 25.8801C50.072 25.3027 47.5471 25.0624 43.2012 24.9907C51.2564 25.387 54.0216 26.5377 54.949 26.9339C55.1639 27.0435 55.3789 27.1574 55.5897 27.2796Z" fill="#262626"/>
<path d="M49.1783 24.7336C48.8622 24.6577 48.5461 24.5819 48.2763 24.5229L48.1077 24.4891C47.1803 24.3416 45.3383 24.6325 43.2012 24.9992C43.3866 24.9739 43.5679 24.9528 43.7534 24.9317C47.2899 24.5271 48.3142 24.5945 49.1783 24.7378V24.7336Z" fill="#262626"/>
<path d="M46.5691 24.2277C46.2909 24.1898 45.9453 24.1518 45.6755 24.1223C45.6755 24.1223 45.6671 24.1223 45.6629 24.1223C45.6123 24.135 45.6038 24.1392 43.2012 24.9949C45.9916 24.253 46.2656 24.2488 46.6408 24.2403C46.6197 24.2403 46.5944 24.2361 46.5691 24.2319V24.2277Z" fill="#262626"/>
<path d="M44.4654 24.0674C44.4275 24.0548 44.3811 24.0379 44.3432 24.0253C44.3432 24.0253 44.339 24.0253 44.3348 24.0253C44.0734 24.0126 43.9132 24.0084 43.8964 24.0084C43.7488 24.0084 43.5634 24 43.4074 24C43.7025 24.0126 43.7109 24.0211 43.8458 24.1939C43.7896 24.3962 43.576 24.6632 43.2051 24.9948C44.3896 24.3372 44.4275 24.2107 44.4696 24.0674H44.4654Z" fill="#262626"/>
<path d="M42.4972 24.1938C43.0705 24.4087 43.1 24.5352 43.2012 24.9946C43.6185 24.0546 42.7501 24.0378 41.983 24.0251C41.7132 24.0378 41.3549 24.0631 41.0893 24.0842L40.8364 24.1052C41.2284 24.0799 42.0462 24.0251 42.4972 24.1938Z" fill="#262626"/>
<path d="M42.6319 74.4057C42.7289 74.4057 42.8216 74.4099 42.9186 74.4099H42.9607C42.9607 74.4099 42.9945 74.4099 43.0071 74.4099C43.1167 74.4099 43.2221 74.4099 43.3317 74.4099C43.4244 74.4099 43.5171 74.4099 43.5972 74.4099C43.6014 74.4099 43.6057 74.4099 43.6099 74.4099C41.6962 74.3762 14.3141 63.9983 18.7401 42.9138C18.7401 42.9138 18.7401 42.9138 18.7401 42.918C18.5884 43.5124 18.4408 44.3133 18.3144 44.9118C18.1921 45.679 18.091 46.7117 18.0067 47.4831C17.5556 66.3968 40.1281 74.1654 42.6319 74.4057Z" fill="#262626"/>
<path d="M38.5056 24.4384C38.455 24.4469 38.4002 24.4595 38.3496 24.468C41.4309 23.9411 42.7166 24.6998 43.2055 24.9949C42.333 24.0338 40.8155 24.0506 38.5098 24.4384H38.5056Z" fill="#262626"/>
<path d="M21.2019 36.8185C10.078 58.2655 41.2368 73.4065 44.9631 74.3465C44.9884 74.3465 45.0137 74.3465 45.039 74.3423L45.2033 74.3297C45.2286 74.3297 45.2539 74.3255 45.2834 74.3212C45.4731 74.3044 45.7007 74.2791 45.8946 74.2622C45.9199 74.2622 45.9452 74.258 45.9663 74.2538C41.553 70.8985 36.1828 69.0691 31.9296 65.4609C29.8473 63.6947 24.9703 59.5596 22.1208 54.0292C16.4177 42.9643 21.4928 35.908 23.984 32.873C23.8954 32.9742 23.8111 33.0754 23.7268 33.1723L23.3053 33.6739C22.6477 34.5802 21.8173 35.8237 21.223 36.7805C21.2146 36.7932 21.2104 36.8058 21.2019 36.8185Z" fill="#262626"/>
<path d="M37.3671 24.6785C37.3671 24.6785 37.3966 24.6701 37.4134 24.6658C37.3755 24.6743 37.3291 24.6827 37.2954 24.6911C37.0172 24.7544 36.6547 24.8513 36.3807 24.9272C35.8159 25.0831 35.0698 25.315 34.5218 25.5215C34.1846 25.648 33.7378 25.8166 33.409 25.9557C33.0128 26.1243 32.4943 26.3688 32.1023 26.55C31.7018 26.7355 31.1833 27.0095 30.804 27.2329C30.3572 27.4943 29.805 27.8357 29.316 28.1518C24.2788 31.6167 20.3039 37.1766 20.8519 43.4446C22.1501 58.2316 38.8972 68.3734 45.1989 72.1924C46.6546 73.0748 47.4246 73.6874 47.5089 74.0302C47.5089 74.0302 47.5384 74.026 47.551 74.0218C47.8967 73.9586 48.3308 73.8658 48.6765 73.7942C48.6891 73.7942 48.7018 73.7899 48.7144 73.7857C48.8367 73.7436 48.9252 73.5665 49.0095 73.4654C48.7229 72.9132 48.1622 72.5169 45.1315 70.5316C37.3333 65.4227 29.4846 59.5467 24.9027 51.2217C14.5628 32.4261 34.6145 22.7016 43.2051 24.9904C41.5401 24.3455 39.5126 24.2738 37.3713 24.6743L37.3671 24.6785Z" fill="#262626"/>
<path d="M46.0844 68.4325C50.8308 71.7878 51.9604 72.5845 50.4598 73.3264C50.4767 73.3222 50.4935 73.318 50.5062 73.3137C50.738 73.2421 50.9994 73.1536 51.2565 73.0693C51.4335 73.0102 51.6064 72.947 51.7792 72.8838C53.9037 71.8974 52.0532 70.5317 47.6272 67.2733C42.7333 63.6693 36.6381 59.1843 31.4703 52.6255C16.2112 33.2608 32.4988 23.6754 43.197 24.9947C31.0403 22.3602 4.88073 39.3223 46.0802 68.4325H46.0844Z" fill="#262626"/>
<path d="M48.8746 64.664C54.4092 68.9087 56.4831 70.4978 53.7347 72.0828C53.7558 72.0743 53.7769 72.0617 53.798 72.0533C54.2574 71.8341 54.8307 71.5306 55.2733 71.3072C57.4146 70.0552 56.5589 68.601 55.3154 67.2184C50.1097 61.4309 43.1967 57.5951 37.8645 51.9509C20.7043 33.7833 32.2161 24.7459 43.2009 24.9988C32.0053 23.9787 12.0168 36.4052 48.8746 64.6682V64.664Z" fill="#262626"/>
<path d="M53.153 61.1529C58.4262 65.3765 60.3062 67.6485 57.4904 69.9332C57.971 69.5959 58.5822 69.1154 59.0627 68.7487C59.303 68.5506 59.5559 68.3356 59.7962 68.1206C61.9838 66.1184 60.7572 65.0351 46.0377 52.0691C24.7003 33.2777 34.3152 26.6429 41.2703 25.2561C34.9643 26.4321 17.3785 32.4894 53.153 61.1529Z" fill="#262626"/>
<path d="M42.9185 25.0159C42.4 25.0622 41.8436 25.1423 41.2661 25.2561C42.008 25.117 42.5897 25.0454 42.9185 25.0159Z" fill="#262626"/>
<path d="M43.2009 24.9949C43.2009 24.9949 43.0829 25.0033 42.9185 25.0159C43.0112 25.0075 43.1081 24.9991 43.2009 24.9949Z" fill="#262626"/>
<path d="M52.1705 52.8827C60.9171 59.9221 64.2007 63.1425 61.3555 66.6411C61.3765 66.62 61.3934 66.6032 61.4103 66.5821C61.8571 66.1016 62.3966 65.4651 62.8181 64.9803C62.8266 64.9677 62.835 64.9592 62.8434 64.9466C65.3346 61.684 62.953 58.2486 52.6848 50.2692C25.8929 29.4545 40.0855 25.5681 43.2048 24.999C40.9328 25.2857 21.8842 28.5103 52.1747 52.8827H52.1705Z" fill="#262626"/>
<path d="M53.9794 47.2511C63.8767 54.6446 66.5998 58.4256 64.7493 62.2066C64.8251 62.0802 64.8968 61.958 64.9685 61.8357L65.0359 61.7177C65.0865 61.6292 65.1329 61.5491 65.1792 61.469L65.7441 60.3815C65.8115 60.2424 65.879 60.1033 65.9464 59.9684C68.1552 54.9017 59.7838 48.8065 54.2281 44.7641C36.1238 31.5916 38.2398 26.7483 43.2011 25.0032C38.9648 26.1076 31.5292 30.4914 53.9794 47.2595V47.2511Z" fill="#262626"/>
<path d="M54.4596 41.5101C63.1008 47.5968 68.2771 51.6687 67.2022 56.7481C67.2528 56.5752 67.3076 56.4024 67.3539 56.2338C67.5268 55.6015 67.6996 54.8892 67.8387 54.3201C68.5806 49.2576 63.3537 45.3965 54.7673 39.5247C49.0936 35.6425 38.5345 28.4176 43.2008 24.9949C35.8832 28.4218 49.865 38.2728 54.4596 41.5101Z" fill="#262626"/>
<path d="M55.0966 37.0335C64.8337 43.3521 68.1427 46.2184 68.3197 50.5685C68.3239 50.4842 68.3324 50.3957 68.3366 50.3114L68.3661 49.2491L68.3408 48.2206C68.3366 48.1026 68.3324 47.9888 68.3239 47.8708C67.9488 43.3057 61.8662 39.5415 54.1735 34.7867C48.7611 31.4441 42.628 27.6504 43.2055 24.999C40.6721 27.6799 49.3555 33.3114 55.1008 37.0377L55.0966 37.0335Z" fill="#262626"/>
<path d="M54.4642 32.9995C63.4342 38.0915 66.8106 40.5658 67.8855 44.2963C67.7506 43.6513 67.5314 42.8336 67.3501 42.1423C67.308 41.999 67.2658 41.8599 67.2237 41.7166C65.7652 37.9229 60.8798 35.1998 52.3946 30.7401C46.3963 27.5829 44.4194 26.3479 43.2012 24.999C43.9009 27.0055 48.3311 29.5219 54.4642 33.0037V32.9995Z" fill="#262626"/>
<path d="M65.9419 38.4246C65.904 38.3487 65.8703 38.2728 65.8323 38.1969L65.3223 37.1895L64.9809 36.5867C64.9176 36.4771 64.8544 36.3675 64.787 36.2579C63.632 34.4622 61.5413 33.126 58.5485 31.558C53.604 28.9698 48.3013 27.2289 43.2051 24.9949C44.7942 26.0065 47.7154 27.347 51.4121 29.0457C61.2209 33.5518 64.2432 35.4992 65.9462 38.4246H65.9419Z" fill="#262626"/>
<path d="M62.882 33.5223C62.8356 33.4632 62.7935 33.4127 62.7429 33.3494C62.7134 33.3115 62.6839 33.2778 62.6502 33.2398C62.6122 33.1935 62.5743 33.1471 62.5364 33.1007C62.1654 32.6708 61.7481 32.2029 61.4151 31.8277C59.2232 29.581 53.0943 27.2837 43.2012 24.9949C58.2073 29.4925 61.1116 31.6001 62.882 33.5223Z" fill="#262626"/>
<path d="M58.768 29.4293C58.4012 29.1469 58.0008 28.8518 57.6551 28.5989C57.5835 28.5483 57.5118 28.5019 57.4402 28.4514C55.0586 26.9507 50.2743 25.7873 43.2012 24.9949C47.6019 25.6482 55.4717 27.1236 59.0799 29.6822C58.9745 29.5937 58.8691 29.5094 58.768 29.4293Z" fill="#262626"/>
<path d="M48.7821 24.9906C49.368 25.0707 49.9497 25.1761 50.5146 25.3068C51.522 25.4754 51.6485 25.5133 52.4156 25.762C52.3946 25.7536 52.3693 25.741 52.3482 25.7367C51.9646 25.585 51.4419 25.408 51.0499 25.2689H51.0415C50.1183 24.9696 49.035 24.9316 47.7789 24.8811C47.8379 24.8853 47.8927 24.8937 47.9517 24.8979C47.311 24.8389 46.6576 24.8052 45.9959 24.8052C44.98 24.8558 44.8451 24.8642 43.2012 24.9991C45.8146 24.8895 46.9949 24.9106 48.7821 24.9949V24.9906ZM48.2974 24.9316C48.4154 24.9443 48.5292 24.9569 48.6472 24.9738C48.5334 24.9569 48.4154 24.9443 48.2974 24.9316Z" fill="#262626"/>
</g>
<defs>
<linearGradient id="paint0_linear_2202_3" x1="6.25" y1="0" x2="6.25" y2="12.5" gradientUnits="userSpaceOnUse">
<stop stop-color="#FFBE99" stop-opacity="0"/>
<stop offset="1" stop-color="#FFBE99"/>
</linearGradient>
<linearGradient id="paint1_linear_2202_3" x1="18.75" y1="23" x2="18.75" y2="35.5" gradientUnits="userSpaceOnUse">
<stop stop-color="#FF9E66"/>
<stop offset="1" stop-color="#FF9E66" stop-opacity="0"/>
</linearGradient>
<linearGradient id="paint2_linear_2202_3" x1="6.25" y1="23" x2="6.25" y2="35.5" gradientUnits="userSpaceOnUse">
<stop stop-color="#FF9E66" stop-opacity="0"/>
<stop offset="0.766167" stop-color="#FF9E66"/>
</linearGradient>
<linearGradient id="paint3_linear_2202_3" x1="6.25" y1="23" x2="6.25" y2="29.25" gradientUnits="userSpaceOnUse">
<stop stop-color="#FFBE99" stop-opacity="0"/>
<stop offset="1" stop-color="#FFBE99"/>
</linearGradient>
<linearGradient id="paint4_linear_2202_3" x1="6.25" y1="0" x2="6.25" y2="12.5" gradientUnits="userSpaceOnUse">
<stop stop-color="#FFBE99"/>
<stop offset="0.159375" stop-color="#FFBE99" stop-opacity="0"/>
</linearGradient>
<linearGradient id="paint5_linear_2202_3" x1="1.89746" y1="5.19856" x2="7.1988" y2="5.19856" gradientUnits="userSpaceOnUse">
<stop stop-color="white"/>
<stop offset="1" stop-color="white" stop-opacity="0"/>
</linearGradient>
</defs>
</svg>
