<svg width="41" height="45" viewBox="0 0 41 45" fill="none" xmlns="http://www.w3.org/2000/svg">
<g opacity="0.5">
<rect x="3.5" y="35.5" width="12.5" height="12.5" transform="rotate(90 3.5 35.5)" fill="white"/>
<rect x="3.5" y="35.5" width="12.5" height="6.25" transform="rotate(90 3.5 35.5)" fill="white"/>
<rect width="12.5" height="12.5" transform="matrix(4.37114e-08 1 1 -4.37114e-08 -9 23)" fill="#FF9E66"/>
<rect width="12.5" height="12.5" transform="matrix(-4.37114e-08 -1 -1 4.37114e-08 3.5 23)" fill="#FFBE99"/>
<rect x="-9" y="10.5" width="12.5" height="12.5" transform="rotate(-90 -9 10.5)" fill="#FF9E66"/>
<path d="M-9 10.5C-7.35847 10.5 -5.73302 10.1767 -4.21646 9.54849C-2.69989 8.92031 -1.3219 7.99957 -0.161164 6.83883C0.999568 5.6781 1.92031 4.30011 2.54849 2.78354C3.17668 1.26697 3.5 -0.358477 3.5 -2L-9 -2L-9 10.5Z" fill="#FFBE99"/>
<rect x="16" y="35.5" width="12.5" height="12.5" transform="rotate(90 16 35.5)" fill="white"/>
<rect width="12.5" height="12.5" transform="matrix(4.37114e-08 1 1 -4.37114e-08 3.5 23)" fill="white"/>
<path d="M3.5 35.5C5.14153 35.5 6.76698 35.1767 8.28354 34.5485C9.80011 33.9203 11.1781 32.9996 12.3388 31.8388C13.4996 30.6781 14.4203 29.3001 15.0485 27.7835C15.6767 26.267 16 24.6415 16 23L3.5 23L3.5 35.5Z" fill="#FF9E66"/>
<rect width="12.5" height="12.5" transform="matrix(-4.37114e-08 -1 -1 4.37114e-08 16 23)" fill="#FF9E66"/>
<path d="M3.5 10.5C5.14152 10.5 6.76697 10.8233 8.28354 11.4515C9.80011 12.0797 11.1781 13.0004 12.3388 14.1612C13.4996 15.3219 14.4203 16.6999 15.0485 18.2165C15.6767 19.733 16 21.3585 16 23L3.5 23L3.5 10.5Z" fill="#FFBE99"/>
<rect x="3.5" y="10.5" width="12.5" height="12.5" transform="rotate(-90 3.5 10.5)" fill="#FF9E66"/>
<rect x="9.75" y="10.5" width="12.5" height="6.25" transform="rotate(-90 9.75 10.5)" fill="white"/>
<path d="M3.5 4.25C3.5 0.79822 6.29822 -2 9.75 -2L9.75 10.5C6.29822 10.5 3.5 7.70178 3.5 4.25Z" fill="white"/>
<rect x="28.5" y="35.5" width="12.5" height="12.5" transform="rotate(90 28.5 35.5)" fill="white"/>
<rect x="28.5" y="35.5" width="12.5" height="6.25" transform="rotate(90 28.5 35.5)" fill="#FFBE99"/>
<path d="M16 41.75C16 45.2018 18.7982 48 22.25 48L22.25 35.5C18.7982 35.5 16 38.2982 16 41.75Z" fill="#FFBE99"/>
<rect width="12.5" height="12.5" transform="matrix(4.37114e-08 1 1 -4.37114e-08 16 23)" fill="white"/>
<path d="M28.5 35.5C26.8585 35.5 25.233 35.1767 23.7165 34.5485C22.1999 33.9203 20.8219 32.9996 19.6612 31.8388C18.5004 30.6781 17.5797 29.3001 16.9515 27.7835C16.3233 26.267 16 24.6415 16 23L28.5 23L28.5 35.5Z" fill="#FF9E66"/>
<rect width="12.5" height="12.5" transform="matrix(-4.37114e-08 -1 -1 4.37114e-08 28.5 23)" fill="#FF9E66"/>
<rect x="16" y="10.5" width="12.5" height="12.5" transform="rotate(-90 16 10.5)" fill="white"/>
<rect x="41" y="35.5" width="12.5" height="12.5" transform="rotate(90 41 35.5)" fill="url(#paint0_linear_2202_4)"/>
<rect width="12.5" height="12.5" transform="matrix(4.37114e-08 1 1 -4.37114e-08 28.5 23)" fill="url(#paint1_linear_2202_4)"/>
<rect width="12.5" height="12.5" transform="matrix(-4.37114e-08 -1 -1 4.37114e-08 41 23)" fill="url(#paint2_linear_2202_4)"/>
<rect width="12.5" height="6.25" transform="matrix(-4.37114e-08 -1 -1 4.37114e-08 41 23)" fill="url(#paint3_linear_2202_4)"/>
<path d="M28.5 16.75C28.5 20.2018 31.2982 23 34.75 23L34.75 10.5C31.2982 10.5 28.5 13.2982 28.5 16.75Z" fill="#FFBE99"/>
<rect x="28.5" y="10.5" width="12.5" height="12.5" transform="rotate(-90 28.5 10.5)" fill="url(#paint4_linear_2202_4)"/>
<rect x="28.5" y="10.5" width="12.5" height="6.25" transform="rotate(-90 28.5 10.5)" fill="white"/>
<path d="M39.1025 5.19856C39.1025 2.27071 36.729 -0.102783 33.8012 -0.102783L33.8012 10.4999C36.729 10.4999 39.1025 8.1264 39.1025 5.19856Z" fill="url(#paint5_linear_2202_4)"/>
</g>
<g opacity="0.9">
<path d="M14.7685 20.6362C14.8067 20.6498 14.8476 20.6635 14.8885 20.6798C15.1773 20.7779 15.537 20.8896 15.8123 20.9741C16.0984 21.0559 16.4827 21.1458 16.7715 21.2139C13.0136 20.2956 9.80606 18.2381 7.2417 15.0933L7.96386 15.9844C8.05379 16.0852 8.13282 16.1751 8.20913 16.2569C8.47619 16.5349 8.79231 16.8564 9.11387 17.1671C9.31281 17.3497 9.5608 17.5677 9.90417 17.8729C10.0813 18.0146 10.2884 18.1727 10.501 18.3307C12.3241 19.6742 13.5695 20.1702 14.7713 20.6389L14.7685 20.6362Z" fill="#262626"/>
<path d="M5.09689 11.2618C8.08364 18.3145 15.5642 21.0151 18.2076 21.4593C18.2212 21.4593 18.2321 21.462 18.2457 21.4648C18.3847 21.4811 18.5591 21.5002 18.6954 21.5138L18.9733 21.5384C18.9733 21.5384 18.9842 21.5384 18.9869 21.5384C17.4282 21.3939 6.70745 18.23 4.29297 8.49854C4.32022 8.64297 4.34475 8.78467 4.372 8.91548C4.55186 9.59404 4.8271 10.4824 5.05873 11.1583C5.07236 11.1937 5.08599 11.2264 5.09689 11.2618Z" fill="#262626"/>
<path d="M19.9246 21.5873C19.9873 21.5873 20.0472 21.5901 20.1099 21.5901H20.1372C20.1372 21.5901 20.159 21.5901 20.1671 21.5901C20.238 21.5901 20.3061 21.5901 20.377 21.5901C20.4369 21.5901 20.4969 21.5901 20.5487 21.5901C20.5514 21.5901 20.5541 21.5901 20.5568 21.5901C19.3196 21.5683 1.61708 14.859 4.47849 1.22778C4.47849 1.22778 4.47849 1.22778 4.47849 1.2305C4.38038 1.61475 4.285 2.13253 4.20325 2.5195C4.12422 3.01548 4.05881 3.68314 4.00431 4.18184C3.71272 16.4096 18.3059 21.432 19.9246 21.5873Z" fill="#262626"/>
<path d="M6.07004 -2.71294C-1.12161 11.1526 19.0227 20.9413 21.4317 21.549C21.448 21.549 21.4644 21.549 21.4807 21.5463L21.587 21.5381C21.6034 21.5381 21.6197 21.5354 21.6388 21.5327C21.7614 21.5218 21.9086 21.5054 22.0339 21.4945C22.0503 21.4945 22.0666 21.4918 22.0803 21.4891C19.227 19.3199 15.7552 18.1371 13.0055 15.8044C11.6593 14.6626 8.50632 11.9892 6.66412 8.41383C2.977 1.26032 6.25808 -3.30157 7.86864 -5.26367C7.81141 -5.19827 7.75691 -5.13287 7.7024 -5.07019L7.42989 -4.7459C7.00477 -4.15999 6.46791 -3.35607 6.08367 -2.73747C6.07822 -2.72929 6.07549 -2.72112 6.07004 -2.71294Z" fill="#262626"/>
<path d="M16.5209 -10.5614C16.5209 -10.5614 16.5399 -10.5668 16.5508 -10.5696C16.5263 -10.5641 16.4963 -10.5587 16.4745 -10.5532C16.2947 -10.5123 16.0603 -10.4496 15.8832 -10.4006C15.518 -10.2998 15.0357 -10.1499 14.6814 -10.0163C14.4634 -9.93459 14.1745 -9.82559 13.9619 -9.73566C13.7058 -9.62665 13.3706 -9.46859 13.1172 -9.35141C12.8583 -9.2315 12.5231 -9.05437 12.2778 -8.90994C11.9889 -8.74098 11.6319 -8.52025 11.3158 -8.31586C8.05928 -6.07579 5.48947 -2.48133 5.84374 1.57096C6.68309 11.1308 17.5101 17.6875 21.5842 20.1564C22.5253 20.7269 23.023 21.123 23.0776 21.3446C23.0776 21.3446 23.0966 21.3419 23.1048 21.3392C23.3283 21.2983 23.609 21.2383 23.8324 21.192C23.8406 21.192 23.8488 21.1893 23.8569 21.1865C23.936 21.1593 23.9932 21.0448 24.0477 20.9794C23.8624 20.6224 23.4999 20.3663 21.5406 19.0827C16.4991 15.7799 11.4248 11.981 8.46261 6.59885C1.77783 -5.55256 14.7413 -11.8395 20.2952 -10.3597C19.2187 -10.7767 17.908 -10.823 16.5236 -10.5641L16.5209 -10.5614Z" fill="#262626"/>
<path d="M22.1565 17.7258C25.225 19.895 25.9553 20.4101 24.9852 20.8897C24.9961 20.887 25.007 20.8842 25.0152 20.8815C25.1651 20.8352 25.334 20.778 25.5002 20.7235C25.6147 20.6853 25.7264 20.6444 25.8382 20.6036C27.2116 19.9659 26.0153 19.0829 23.1539 16.9764C19.99 14.6464 16.0494 11.7468 12.7084 7.50651C2.8434 -5.0128 13.3734 -11.2098 20.2898 -10.3568C12.4305 -12.06 -4.48179 -1.09404 22.1538 17.7258H22.1565Z" fill="#262626"/>
<path d="M23.9606 15.2894C27.5387 18.0337 28.8795 19.061 27.1027 20.0857C27.1163 20.0802 27.1299 20.0721 27.1435 20.0666C27.4406 19.9249 27.8112 19.7287 28.0973 19.5843C29.4817 18.7749 28.9285 17.8347 28.1246 16.9409C24.759 13.1993 20.2898 10.7194 16.8425 7.07041C5.74844 -4.67496 13.1908 -10.5177 20.2925 -10.3542C13.0545 -11.0136 0.131915 -2.97993 23.9606 15.2922V15.2894Z" fill="#262626"/>
<path d="M26.7265 13.0196C30.1357 15.7502 31.3511 17.219 29.5307 18.6961C29.8414 18.4781 30.2365 18.1674 30.5472 17.9303C30.7025 17.8022 30.866 17.6632 31.0214 17.5242C32.4357 16.2298 31.6427 15.5294 22.1265 7.1469C8.33181 -5.00179 14.5479 -9.29117 19.0443 -10.1877C14.9675 -9.42743 3.59823 -5.5114 26.7265 13.0196Z" fill="#262626"/>
<path d="M26.0915 7.67282C31.7462 12.2238 33.8691 14.3058 32.0296 16.5677C32.0432 16.5541 32.0541 16.5432 32.065 16.5295C32.3539 16.2189 32.7027 15.8074 32.9752 15.494C32.9807 15.4858 32.9861 15.4804 32.9916 15.4722C34.6021 13.3629 33.0624 11.1419 26.424 5.98323C9.10298 -7.47353 18.2785 -9.98611 20.2951 -10.354C18.8263 -10.1687 6.51136 -8.08396 26.0942 7.67282H26.0915Z" fill="#262626"/>
<path d="M27.2608 4.03175C33.6594 8.81165 35.4198 11.2561 34.2235 13.7006C34.2726 13.6188 34.3189 13.5398 34.3652 13.4607L34.4088 13.3844C34.4415 13.3272 34.4715 13.2754 34.5015 13.2237L34.8666 12.5206C34.9102 12.4306 34.9538 12.3407 34.9974 12.2535C36.4254 8.97789 31.0133 5.03733 27.4215 2.42391C15.7171 -6.09216 17.0851 -9.22335 20.2926 -10.3516C17.5538 -9.63757 12.7466 -6.80342 27.2608 4.0372V4.03175Z" fill="#262626"/>
<path d="M27.5714 0.320179C33.158 4.25529 36.5045 6.88777 35.8095 10.1716C35.8422 10.0598 35.8777 9.94812 35.9077 9.83911C36.0194 9.43034 36.1311 8.96979 36.221 8.6019C36.7007 5.329 33.3215 2.83276 27.7704 -0.963362C24.1023 -3.47322 17.2758 -8.14412 20.2926 -10.3569C15.5617 -8.14139 24.601 -1.77273 27.5714 0.320179Z" fill="#262626"/>
<path d="M27.9828 -2.57372C34.2779 1.51127 36.4171 3.36437 36.5316 6.17672C36.5343 6.12222 36.5398 6.06498 36.5425 6.01048L36.5616 5.32375L36.5452 4.65881C36.5425 4.58251 36.5398 4.50892 36.5343 4.43262C36.2918 1.48129 32.3594 -0.952258 27.386 -4.02622C23.8869 -6.18726 19.9218 -8.63989 20.2952 -10.354C18.6574 -8.62081 24.2712 -4.98002 27.9855 -2.57099L27.9828 -2.57372Z" fill="#262626"/>
<path d="M27.5741 -5.18169C33.3732 -1.88971 35.556 -0.290047 36.2509 2.12171C36.1637 1.70476 36.022 1.17608 35.9048 0.729152C35.8776 0.636497 35.8503 0.546573 35.8231 0.453918C34.8802 -1.99871 31.7217 -3.75916 26.236 -6.64236C22.3581 -8.68349 21.08 -9.48196 20.2925 -10.354C20.7449 -9.05684 23.609 -7.42993 27.5741 -5.17896V-5.18169Z" fill="#262626"/>
</g>
<defs>
<linearGradient id="paint0_linear_2202_4" x1="47.25" y1="35.5" x2="47.25" y2="48" gradientUnits="userSpaceOnUse">
<stop stop-color="#FFBE99" stop-opacity="0"/>
<stop offset="1" stop-color="#FFBE99"/>
</linearGradient>
<linearGradient id="paint1_linear_2202_4" x1="6.25" y1="0" x2="6.25" y2="12.5" gradientUnits="userSpaceOnUse">
<stop stop-color="#FF9E66"/>
<stop offset="1" stop-color="#FF9E66" stop-opacity="0"/>
</linearGradient>
<linearGradient id="paint2_linear_2202_4" x1="6.25" y1="0" x2="6.25" y2="12.5" gradientUnits="userSpaceOnUse">
<stop stop-color="#FF9E66" stop-opacity="0"/>
<stop offset="0.766167" stop-color="#FF9E66"/>
</linearGradient>
<linearGradient id="paint3_linear_2202_4" x1="6.25" y1="0" x2="6.25" y2="6.25" gradientUnits="userSpaceOnUse">
<stop stop-color="#FFBE99" stop-opacity="0"/>
<stop offset="1" stop-color="#FFBE99"/>
</linearGradient>
<linearGradient id="paint4_linear_2202_4" x1="34.75" y1="10.5" x2="34.75" y2="23" gradientUnits="userSpaceOnUse">
<stop stop-color="#FFBE99"/>
<stop offset="0.159375" stop-color="#FFBE99" stop-opacity="0"/>
</linearGradient>
<linearGradient id="paint5_linear_2202_4" x1="39.1025" y1="5.19856" x2="33.8012" y2="5.19856" gradientUnits="userSpaceOnUse">
<stop stop-color="white"/>
<stop offset="1" stop-color="white" stop-opacity="0"/>
</linearGradient>
</defs>
</svg>
