<svg width="48" height="48" viewBox="0 0 48 48" fill="none" xmlns="http://www.w3.org/2000/svg">
<rect x="1" y="1" width="46" height="46" rx="7" fill="#FFDECC"/>
<rect x="1" y="1" width="46" height="46" rx="7" stroke="#262626" stroke-width="2"/>
<path d="M20.2918 32.1251C27.8371 32.1251 31.9652 25.8724 31.9652 20.4517C31.9652 20.2759 31.9613 20.0962 31.9535 19.9204C32.7566 19.3397 33.4496 18.6203 34 17.7962C33.2521 18.129 32.458 18.3463 31.6449 18.4407C32.5011 17.9275 33.1421 17.1213 33.4492 16.1716C32.6438 16.6489 31.763 16.9856 30.8445 17.1673C30.2257 16.5098 29.4075 16.0744 28.5164 15.9285C27.6253 15.7826 26.711 15.9343 25.9148 16.3602C25.1186 16.7861 24.4848 17.4624 24.1115 18.2845C23.7382 19.1067 23.6462 20.029 23.8496 20.9087C22.2187 20.8269 20.6233 20.4032 19.1667 19.6652C17.71 18.9272 16.4247 17.8913 15.3941 16.6247C14.8703 17.5278 14.71 18.5965 14.9459 19.6135C15.1817 20.6306 15.7959 21.5197 16.6637 22.1001C16.0122 22.0794 15.375 21.904 14.8047 21.5884V21.6392C14.8041 22.5869 15.1317 23.5056 15.7319 24.2391C16.3321 24.9726 17.1678 25.4756 18.0969 25.6626C17.4934 25.8277 16.86 25.8518 16.2457 25.7329C16.5079 26.548 17.018 27.2609 17.7048 27.7721C18.3916 28.2833 19.2209 28.5673 20.077 28.5845C18.6237 29.726 16.8285 30.3452 14.9805 30.3423C14.6527 30.3418 14.3253 30.3217 14 30.2821C15.8774 31.4866 18.0613 32.1263 20.2918 32.1251Z" fill="#262626"/>
</svg>
